<svg width="33" height="33" viewBox="0 0 33 33" fill="none" xmlns="http://www.w3.org/2000/svg">
<g clip-path="url(#clip0_28_821)">
<path d="M21.3333 19.1667H20.28L19.9066 18.8067C21.2133 17.2867 22 15.3133 22 13.1667C22 8.38 18.12 4.5 13.3333 4.5C8.54663 4.5 4.66663 8.38 4.66663 13.1667C4.66663 17.9533 8.54663 21.8333 13.3333 21.8333C15.48 21.8333 17.4533 21.0467 18.9733 19.74L19.3333 20.1133V21.1667L26 27.82L27.9866 25.8333L21.3333 19.1667ZM13.3333 19.1667C10.0133 19.1667 7.33329 16.4867 7.33329 13.1667C7.33329 9.84667 10.0133 7.16667 13.3333 7.16667C16.6533 7.16667 19.3333 9.84667 19.3333 13.1667C19.3333 16.4867 16.6533 19.1667 13.3333 19.1667Z" fill="#C7C7CC"/>
</g>
<defs>
<clipPath id="clip0_28_821">
<rect width="32" height="32" fill="white" transform="translate(0.666626 0.5)"/>
</clipPath>
</defs>
</svg>
