<svg width="32" height="33" viewBox="0 0 32 33" fill="none" xmlns="http://www.w3.org/2000/svg">
<g clip-path="url(#clip0_93_446)">
<path d="M16 8.36659C17.5467 8.36659 18.8 9.61992 18.8 11.1666C18.8 12.7133 17.5467 13.9666 16 13.9666C14.4534 13.9666 13.2 12.7133 13.2 11.1666C13.2 9.61992 14.4534 8.36659 16 8.36659ZM16 20.3666C19.96 20.3666 24.1334 22.3133 24.1334 23.1666V24.6333H7.86671V23.1666C7.86671 22.3133 12.04 20.3666 16 20.3666ZM16 5.83325C13.0534 5.83325 10.6667 8.21992 10.6667 11.1666C10.6667 14.1133 13.0534 16.4999 16 16.4999C18.9467 16.4999 21.3334 14.1133 21.3334 11.1666C21.3334 8.21992 18.9467 5.83325 16 5.83325ZM16 17.8333C12.44 17.8333 5.33337 19.6199 5.33337 23.1666V27.1666H26.6667V23.1666C26.6667 19.6199 19.56 17.8333 16 17.8333Z" fill="#C7C7CC"/>
</g>
<defs>
<clipPath id="clip0_93_446">
<rect width="32" height="32" fill="white" transform="translate(0 0.5)"/>
</clipPath>
</defs>
</svg>
